<?xml version="1.0" encoding="utf-8"?>
<!-- Generator: Adobe Illustrator 26.0.1, SVG Export Plug-In . SVG Version: 6.00 Build 0)  -->
<svg version="1.1"
	 id="svg17" xmlns:inkscape="http://www.inkscape.org/namespaces/inkscape" xmlns:sodipodi="http://sodipodi.sourceforge.net/DTD/sodipodi-0.dtd" xmlns:svg="http://www.w3.org/2000/svg"
	 xmlns="http://www.w3.org/2000/svg" xmlns:xlink="http://www.w3.org/1999/xlink" x="0px" y="0px" viewBox="0 0 501.3 75.4"
	 style="enable-background:new 0 0 501.3 75.4;" xml:space="preserve">
<style type="text/css">
	.st0{fill:#111111;}
	.st1{font-family:'Slabo27px-Regular';}
	.st2{font-size:25.9763px;}
	.st3{letter-spacing:3.7;}
</style>
<sodipodi:namedview  bordercolor="#000000" borderopacity="0.25" id="namedview19" inkscape:deskcolor="#d1d1d1" inkscape:pagecheckerboard="0" inkscape:pageopacity="0.0" inkscape:showpageshadow="2" pagecolor="#ffffff">
	</sodipodi:namedview>
<g id="SvgjsG2383" transform="matrix(2.35552861464431,0,0,2.35552861464431,78.2569081006969,-13.049579014316084)">
	<path id="path14" class="st0" d="M46-77.9c-1.2,0.5-2.4,0.8-3.5,1c-1.1,0.2-2.4,0.2-3.7,0.2c-2.5,0-4.6-0.4-6.5-1.2
		c-1.9-0.8-3.4-1.9-4.6-3.3c-1.2-1.4-2.2-3.1-2.8-5c-0.6-1.9-0.9-4.1-0.9-6.4s0.3-4.5,1-6.5s1.6-3.7,2.8-5.1
		c1.2-1.4,2.8-2.5,4.6-3.3c1.8-0.8,3.9-1.2,6.3-1.2c1.4,0,2.6,0.1,3.7,0.4c1.1,0.3,2.2,0.6,3.2,1.1l-1.8,5.8
		c-0.6-0.3-1.2-0.5-1.9-0.7c-0.7-0.2-1.6-0.3-2.5-0.3c-5.2,0-7.8,3.3-7.8,9.8c0,3.3,0.7,5.7,2,7.3c1.3,1.6,3.4,2.4,6.2,2.4
		c0.9,0,1.8-0.1,2.5-0.2c0.7-0.1,1.4-0.3,2.1-0.6L46-77.9z M60.5-87.1c-0.3-0.1-0.6-0.1-0.9-0.1s-0.6,0-0.8,0c-1.2,0-2.2,0.2-3,0.6
		s-1.1,1-1.1,2c0,0.6,0.1,1,0.4,1.4c0.3,0.3,0.6,0.6,1,0.7c0.4,0.2,0.8,0.3,1.3,0.3c0.5,0,0.8,0,1.2,0c0.6,0,1.2-0.1,2-0.2
		C60.5-82.5,60.5-87.1,60.5-87.1z M58.2-91.9c0.2,0,0.5,0,0.9,0s0.8,0,1.3,0.1c0-1.1-0.4-1.9-1.2-2.2c-0.8-0.3-1.8-0.5-3-0.5
		c-0.7,0-1.4,0.1-2.3,0.2c-0.9,0.2-1.8,0.4-2.8,0.7L50.4-96c-0.1-0.3-0.2-0.8-0.4-1.4c-0.2-0.6-0.3-1.1-0.3-1.4
		c1.5-0.5,2.8-0.8,4.1-1.1s2.5-0.3,3.5-0.3c3.1,0,5.5,0.7,7.1,2.2c1.7,1.5,2.5,3.8,2.5,7v12.8c-1.1,0.3-2.4,0.6-3.9,0.9
		c-1.5,0.3-3.1,0.5-4.8,0.5c-1.5,0-2.9-0.1-4.1-0.4c-1.2-0.3-2.3-0.7-3.2-1.3c-0.9-0.6-1.6-1.4-2-2.4s-0.7-2.2-0.7-3.6
		s0.3-2.6,0.9-3.6c0.6-1,1.4-1.7,2.3-2.3c0.9-0.6,2-1,3.2-1.2C55.8-91.8,57-91.9,58.2-91.9L58.2-91.9z M79.1-99.1
		c0.3-0.2,0.8-0.5,1.5-0.7c0.6-0.2,1.3-0.3,2.1-0.3c0.7,0,1.2,0,1.6,0.1c0.4,0.1,0.6,0.1,0.6,0v5.8c-0.7-0.1-1.3-0.1-2,0
		c-0.6,0.1-1.1,0.2-1.7,0.3c-0.6,0.1-1.1,0.4-1.6,0.7c-0.6,0.4-1,1-1.2,1.7S78-89.9,78-88.7v11.6h-6.5v-17.3H68l2.8-5.5H78v1.7
		c0.1-0.1,0.3-0.2,0.4-0.3c0.1-0.1,0.2-0.2,0.3-0.3S79-99.1,79.1-99.1z M89.2-108.3l7.1,0v11.8h9.3v-11.8h7.1v31.2h-7.1v-13.3
		c-0.2,0-0.3,0.1-0.5,0.1l-0.5,0.1h-7.3l-1-0.2v13.3h-7.1L89.2-108.3L89.2-108.3z M117.8-99.9l6.6,0V-88c0,1,0.1,1.9,0.3,2.5
		c0.2,0.7,0.4,1.2,0.8,1.6c0.3,0.4,0.8,0.7,1.3,0.8c0.5,0.2,1.1,0.2,1.8,0.2c0.8,0,1.6,0,2.3-0.1l-0.1-0.8v-16.2h6.6v21.5
		c-1.1,0.4-2.4,0.7-3.9,1c-1.5,0.3-3,0.4-4.6,0.4c-1.5,0-2.9-0.1-4.2-0.3c-1.4-0.2-2.5-0.7-3.6-1.5c-1-0.8-1.8-1.9-2.4-3.3
		c-0.6-1.4-0.9-3.4-0.9-5.8C117.8-87.9,117.8-99.9,117.8-99.9z M149.3-107.7l0,7.5l-0.2,0.9c0,0,0.3-0.1,0.9-0.3
		c0.6-0.2,1.4-0.2,2.4-0.2c1.5,0,2.9,0.2,4.2,0.7c1.3,0.5,2.4,1.1,3.3,2.1c0.9,0.9,1.6,2.1,2.1,3.6s0.8,3.2,0.8,5.2
		c0,1.6-0.2,3-0.5,4.4c-0.4,1.4-1,2.6-1.8,3.6s-1.9,1.9-3.3,2.5s-3.1,0.9-5.1,0.9h-1.2l-2-0.1l-2.7-0.3l-3.1-0.5v-24.6h-3.6l2.8-5.3
		L149.3-107.7z M151.4-82.7c0.7,0,1.4-0.1,2-0.3s1.2-0.5,1.6-0.9s0.8-1,1.1-1.7c0.3-0.7,0.4-1.6,0.4-2.7s-0.1-2-0.4-2.8
		c-0.3-0.8-0.6-1.4-1-1.9c-0.4-0.5-1-0.8-1.5-1c-0.6-0.2-1.2-0.3-1.9-0.3c-0.3,0-0.8,0-1.2,0.1c-0.5,0.1-0.8,0.1-1.1,0.2v11.2
		c0.3,0.1,0.6,0.1,1,0.1C150.6-82.7,151-82.7,151.4-82.7L151.4-82.7z"/>
</g>
<g>
	<path d="M-294.7,44.6c0.9,1.8,2.7,2.8,4.6,3.2c1.4,0.2,3.2-0.2,4.3,0.8c0,0,0.1,0,0.1,0.1c0.1,0.1,0.2,0.2,0.3,0.2
		c0.1-0.4,0-0.7-0.1-1.1c-0.2-0.5-0.4-1-0.7-1.3c-0.4-0.5-0.7-1-1.2-1.4c-0.6-0.5-1.2-0.9-2-1.1c-0.4-0.1-0.7-0.2-1.1-0.2
		c-0.3,0-0.7,0.1-1-0.2c0.4-0.1,0.7-0.1,1.1-0.1c0,0,0,0,0,0c1.6,0,2.9,0.7,3.4,1c-0.4-0.7-2.3-3.4-6.3-2.4c0,0-1.2,0.4-1.8,1.1
		 M-288.4,47c-0.6,0.2-1.6-0.1-2.2-0.3c-0.5-0.2-1.1-0.4-1.5-0.8c-0.6-0.5-0.9-1.3-1.4-1.8c0,0,0,0-0.1-0.1l-0.1-0.3
		c0.1-0.2,0.4-0.2,0.7-0.2c0.3,0,0.5,0.1,0.8,0.1c0.2,0.1,0.5,0.2,0.7,0.3c0.2,0.1,0.5,0.1,0.7,0.2c0.6,0.2,1.5,0.6,1.9,1
		c-0.4,0-0.7-0.2-1-0.4c-0.3-0.2-0.7-0.3-1-0.4c-0.7-0.2-1.4-0.4-2.3-0.4c0.6,0.3,1,0.8,1.5,1.2c0.5,0.5,1.1,0.8,1.7,1.1
		C-290,46.4-288.4,46.9-288.4,47C-288.4,47-288.4,47-288.4,47"/>
	<path d="M-312.3,75.2v4.2h13c0,0,10,0.7,13.7-6.9c0,0,3.1-7-5-12.3c0,0-11.1-6.3-10.8-6.9c0,0-4.8-3.5-1.3-8.9c0,0,2.9-3.1,8.4-0.2
		l1-1.9c0,0-6.5-2.9-14.5,0.5c0,0-8.7,3.9-3,13.7c0,0,2.2,2.9,5.4,4.8c3.2,1.9,9.6,5,11,8.4c1.5,3.4-1.5,7-2.9,7.5
		S-308.5,79.4-312.3,75.2z"/>
	<polygon points="-279.3,51.1 -279.3,50.5 -268.1,50.5 -268.1,51.1 -270.4,51.7 -270.4,76.8 -268.1,77.4 -268.1,78 -279.3,78 
		-279.3,77.4 -276.9,76.8 -276.9,51.7 	"/>
	<path d="M-243.5,52.3l-3.1-1.2v-0.6h7.5v0.6l-3.1,1.2V78h-1.2l-18.2-20.8v19l3.1,1.2V78h-7.5v-0.6l3.1-1.2V51.9l-2.7-0.8v-0.6h4.1
		c3.1,0,4.5,1.6,5.5,2.7l12.5,14.7V52.3z"/>
	<path d="M-233.5,77.4V78h-7.3v-0.6l3.1-1.2l10.8-26.1h1.2l11.2,26.7l2,0.6V78h-4.7c-2.9,0-4.5-1.6-5.3-3.3l-2-4.7h-9.4l-2.6,6.3
		L-233.5,77.4z M-233.4,68.9h8.6l-4.3-10.3L-233.4,68.9z"/>
	<path d="M-209.9,78v-0.6l2.4-0.6V51.5h-5.8c0,1.5-1.2,2.3-1.2,2.3h-1.2v-3.3h22.9v3.3h-1.2c0,0-1.2-0.8-1.2-2.3h-5.8v25.3l2.4,0.6
		V78H-209.9z"/>
	<path d="M-179.5,65.8h-2.5v11l2.7,0.6V78h-11.6v-0.6l2.4-0.6V51.7l-2.4-0.6v-0.6h10.4c9.4,0,11.1,4.1,11.1,7.6c0,6.7-8,7.3-8,7.3
		s4.5,0.1,6.1,3.6l3.9,7.7l2,0.6V78h-5.5c-2.4,0-3.8-1.4-4.7-3.3L-179.5,65.8z M-180.5,64.8c3.5,0,5.9-2.4,5.9-6.7
		c0-4.3-2.4-6.7-5.9-6.7h-1.6v13.3H-180.5z"/>
	<path d="M-157,77.4V78h-7.3v-0.6l3.1-1.2l10.8-26.1h1.2l11.2,26.7l2,0.6V78h-4.7c-2.9,0-4.5-1.6-5.3-3.3l-2-4.7h-9.4l-2.6,6.3
		L-157,77.4z M-156.9,68.9h8.6l-4.3-10.3L-156.9,68.9z"/>
</g>
<text transform="matrix(1.0841 0 0 1 -280.9282 92.3525)" class="st1" style="font-size:14.849px; letter-spacing:1.8;">  RENT A CAR</text>
<g>
	<path d="M207.3,8.5c0.9,1.8,2.7,2.8,4.6,3.2c1.4,0.2,3.2-0.2,4.3,0.8c0,0,0.1,0,0.1,0.1c0.1,0.1,0.2,0.2,0.3,0.2
		c0.1-0.4,0-0.7-0.1-1.1c-0.2-0.5-0.4-1-0.7-1.3c-0.4-0.5-0.7-1-1.2-1.4c-0.6-0.5-1.2-0.9-2-1.1c-0.4-0.1-0.7-0.2-1.1-0.2
		c-0.3,0-0.7,0.1-1-0.2c0.4-0.1,0.7-0.1,1.1-0.1c0,0,0,0,0,0c1.6,0,2.9,0.7,3.4,1c-0.4-0.7-2.3-3.4-6.3-2.4c0,0-1.2,0.4-1.8,1.1
		 M213.6,10.9c-0.6,0.2-1.6-0.1-2.2-0.3c-0.5-0.2-1.1-0.4-1.5-0.8c-0.6-0.5-0.9-1.3-1.4-1.8c0,0,0,0-0.1-0.1l-0.1-0.3
		c0.1-0.2,0.4-0.2,0.7-0.2c0.3,0,0.5,0.1,0.8,0.1c0.2,0.1,0.5,0.2,0.7,0.3c0.2,0.1,0.5,0.1,0.7,0.2c0.6,0.2,1.5,0.6,1.9,1
		c-0.4,0-0.7-0.2-1-0.4c-0.3-0.2-0.7-0.3-1-0.4c-0.7-0.2-1.4-0.4-2.3-0.4c0.6,0.3,1,0.8,1.5,1.2c0.5,0.5,1.1,0.8,1.7,1.1
		C212,10.3,213.6,10.9,213.6,10.9C213.6,10.9,213.6,10.9,213.6,10.9"/>
	<path d="M189.7,39.1v4.2h13c0,0,10,0.7,13.7-6.9c0,0,3.1-7-5-12.3c0,0-11.1-6.3-10.8-6.9c0,0-4.8-3.5-1.3-8.9c0,0,2.9-3.1,8.4-0.2
		l1-1.9c0,0-6.5-2.9-14.5,0.5c0,0-8.7,3.9-3,13.7c0,0,2.2,2.9,5.4,4.8s9.6,5,11,8.4s-1.5,7-2.9,7.5
		C203.3,41.8,193.5,43.4,189.7,39.1z"/>
	<polygon points="222.8,15 222.8,14.4 233.9,14.4 233.9,15 231.6,15.6 231.6,40.7 233.9,41.3 233.9,41.9 222.8,41.9 222.8,41.3 
		225.1,40.7 225.1,15.6 	"/>
	<path d="M258.6,16.2l-3.1-1.2v-0.6h7.5V15l-3.1,1.2v25.7h-1.2l-18.2-20.8v19l3.1,1.2v0.6H236v-0.6l3.1-1.2V15.8l-2.7-0.8v-0.6h4.1
		c3.1,0,4.5,1.6,5.5,2.7l12.5,14.7V16.2z"/>
	<path d="M268.6,41.3v0.6h-7.3v-0.6l3.1-1.2L275.2,14h1.2l11.2,26.7l2,0.6v0.6h-4.7c-2.9,0-4.5-1.6-5.3-3.3l-2-4.7h-9.4l-2.6,6.3
		L268.6,41.3z M268.6,32.9h8.6l-4.3-10.3L268.6,32.9z"/>
	<path d="M292.1,41.9v-0.6l2.4-0.6V15.4h-5.8c0,1.5-1.2,2.3-1.2,2.3h-1.2v-3.3h22.9v3.3H308c0,0-1.2-0.8-1.2-2.3H301v25.3l2.4,0.6
		v0.6H292.1z"/>
	<path d="M322.5,29.7h-2.5v11l2.7,0.6v0.6h-11.6v-0.6l2.4-0.6V15.6l-2.4-0.6v-0.6h10.4c9.4,0,11.1,4.1,11.1,7.6c0,6.7-8,7.3-8,7.3
		s4.5,0.1,6.1,3.6l3.9,7.7l2,0.6v0.6h-5.5c-2.4,0-3.8-1.4-4.7-3.3L322.5,29.7z M321.5,28.7c3.5,0,5.9-2.4,5.9-6.7
		c0-4.3-2.4-6.7-5.9-6.7h-1.6v13.3H321.5z"/>
	<path d="M345,41.3v0.6h-7.3v-0.6l3.1-1.2L351.7,14h1.2l11.2,26.7l2,0.6v0.6h-4.7c-2.9,0-4.5-1.6-5.3-3.3l-2-4.7h-9.4l-2.6,6.3
		L345,41.3z M345.1,32.9h8.6l-4.3-10.3L345.1,32.9z"/>
</g>
<text transform="matrix(1.0841 0 0 1 192.2236 67.6074)" class="st1 st2 st3">MOTORS</text>
<g>
	<path d="M175,35.8c-1.1-4.3-6-9-9.1-10.8c-2.6-1.5-10-2.4-13-2.4c-0.2,0-0.3,0-0.4,0c-2.8,0.1-4.5,1.1-6.8,2.4
		c-0.3,0.2-0.5,0.3-0.8,0.5l-0.5,0.3l0.3-0.4c1.8-2.5,3.2-3.7,6.7-4.4c0.6-0.1,1.4-0.2,2.3-0.2c3.6,0,8.6,0.9,11.8,1.8
		c-0.9-4.7-3.9-8-8.7-9.9c-3.5-0.9-8.6-1.5-12.4-1.5c-1.5,0-2.6,0.1-3.5,0.3c-3.7,0.8-6.9,3.4-9,5.5l-0.2-0.1
		c2.5-3.5,5.9-5.9,9.3-6.6c1.1-0.2,2.4-0.3,4-0.3c3.1,0,6.7,0.4,9.7,1.1c-3-2.5-7.7-4-12.5-4c-0.6,0-1.1,0-1.7,0.1
		c-6.3,0.4-14.6,5.2-17.4,8.9c-0.7,1-1.1,1.9-0.9,2.5c1.5,0.8,3.8,1.4,5.7,1.4c0.6,0,1.2-0.1,1.6-0.2l0.2-0.1l0,0.2
		c-0.6,2.9-0.4,9.6,1.7,11.2c1.2,0.9,2.5,1.3,4.3,1.3c0.8,0,1.7-0.1,2.4-0.2l0.4,0l-0.3,0.3c-1.6,1.2-2.8,1.4-5.2,1.4
		c-1.1,1.1-1.5,1.9-1.3,2.9c0.2,1,1.5,2,2.6,2.7l0.1,0.1l-0.1,0.1c-0.6,0.8-1,1.8-1.3,2.6c-0.6,1.5-1.2,2.8-2.6,3.7
		c-0.6,1.3-1.7,2.7-2.8,4.3c-1.2,1.6-2.5,3.2-3.3,4.9c-0.9,1.9-1.2,5.2-0.1,7.6c1.1-1.4,2.6-2.6,4.1-4c0.7-0.6,1.5-1.3,2.2-2
		c2.5-2.4,6-5.9,7-9.4c1.1-3.8,0.8-7.1,0.1-10.9l0.2-0.1c1.8,4.6,2.3,7,1,11.4c-1,3.5-4.5,7.1-7.1,9.5c-0.3,0.3-0.6,0.5-0.8,0.8
		c-2.5,2.3-5.3,4.9-6.7,7.3c-0.9,2.2-0.8,5.2-0.2,7c0.7-1.6,3.4-5.7,13.4-9.6c4.4-1.7,7.6-3.5,10-6.8c3.9-8.4,1.1-16.7-2.4-21.3
		l-0.7-0.9l0.9,0.7c4.6,3.9,7.5,12.4,4.1,20.6c3.1,0,6.9-0.3,10.1-2.5c0.6-2.6,0.5-5.5-0.3-8.6c-1-3.6-7.2-10.2-13.5-13.2l0.1-0.2
		c4.4,1.5,7.6,3.9,9.6,5.8c2.4,2.2,4.2,4.6,5,6.7c1.3,3.5,1.6,6.4,1,9.1c0.5,0.1,1.2,0.1,1.8,0.1c3.3,0,7.5-0.9,8.4-3.6
		c-2.5-9.5-13.5-17.8-20.2-19.9l0.1-0.2c7.5,0.9,18.3,9.3,21.8,19.1C174.6,45.4,176.1,39.9,175,35.8 M134.2,27.7l-0.4,0.1l0.6-0.6
		c0.3-0.3,0.5-0.6,0.8-0.8c0-0.2,0.1-0.4,0.6-1l0.1-0.1c0.5-0.8,0.6-1.2,0.6-1.7c0-0.3-0.2-0.6-0.5-0.6c-0.1,0-0.2,0-0.3,0.1
		c-0.2,0.1-0.5,0.2-0.7,0.2c-0.2,0-0.3-0.1-0.3-0.2c-0.1-0.2,0.1-0.3,0.4-0.6c0.4-0.4,0.9-0.7,1.4-0.7c0.6,0,1,0.4,1.2,0.9
		c0.1,0.5,0.1,1.2-0.2,2c1-1,1.7-2.5,1.7-3.3c0-0.9-0.5-2.1-1.9-2.1c-1.3,0-2.2,0.8-3.3,2.1c-0.3,0.4-0.6,0.6-0.9,0.6
		c-0.2,0-0.4-0.1-0.5-0.3c-0.2-0.4-0.1-1,0.4-1.7c1.3-1.8,3.4-2.5,4.5-2.4c0.9,0.1,3.3,0.3,3.2,3.8
		C140.4,24.6,136.7,26.9,134.2,27.7"/>
	<path d="M131.7,33.2c-1.4-0.7-2.6-2.4-3.2-4.6c-0.5-1.8-1.1-4.6-0.5-7.4c-0.3,0.1-0.5,0.1-0.8,0.1c-1.2,0-2.5-0.5-3.9-1.1
		c-0.8-0.3-1.8-0.7-2.9-1.1l-0.1,0c-0.2,0-0.3,0.1-0.5,0.1c-2.8,0.7-5.3,1.6-5.5,5l0,0l0,0l-6.9,7.3c0,0-0.4,0.3-0.4,0.6
		c0,0.2,0.1,0.4,0.3,0.5l7.4,6.2l7.4,0c0.3,0.1,0.7,0.5,0.5,0.9l0,0.1l-0.1,0l-6,0.2c0.5,2.2,1.2,5.4,1.5,5.8c0.2,0,0.6,0.1,1.1,0.1
		c1.6,0,4-0.2,4-0.2c0,0,3.1-0.2,5.1-3.3l0.4-0.8c0.5-1.1,1.3-1.9,2.7-2.7c-0.7-0.6-1-1.4-1.1-2.3C130.2,35.6,130.7,34.3,131.7,33.2
		 M110.7,34c-0.8-0.4-1.5-1-2.1-1.7c0.9,0.1,2.8,0.4,3.8-0.7C112.1,32.7,111.6,33.3,110.7,34 M118.3,23.9c0.1,0,0.2,0,0.2,0
		c0.4,0.1,0.8,0.1,1.1,0.2c0.3,0.1,0.7,0.1,1,0.2c1,0.2,1.9,0.2,2.9,0c-1.2,0.6-2.6,0.9-3.7,1.8c0,0-0.1,0-0.1,0
		c-1.4-0.3-2,0.6-3.1,0.9C117.2,26,118.7,25.5,118.3,23.9 M117.7,32.3l6.1-3.4c0,0,4,3.8,4.1,6.3C126,33.1,124.4,29.6,117.7,32.3"/>
</g>
</svg>
